<svg width="20" height="20" viewBox="0 0 20 20" fill="none" xmlns="http://www.w3.org/2000/svg">
<path d="M15 6.66634H14.1666V4.99967C14.1666 2.69967 12.3 0.833008 9.99998 0.833008C7.69998 0.833008 5.83331 2.69967 5.83331 4.99967V6.66634H4.99998C4.08331 6.66634 3.33331 7.41634 3.33331 8.33301V16.6663C3.33331 17.583 4.08331 18.333 4.99998 18.333H15C15.9166 18.333 16.6666 17.583 16.6666 16.6663V8.33301C16.6666 7.41634 15.9166 6.66634 15 6.66634ZM9.99998 14.1663C9.08331 14.1663 8.33331 13.4163 8.33331 12.4997C8.33331 11.583 9.08331 10.833 9.99998 10.833C10.9166 10.833 11.6666 11.583 11.6666 12.4997C11.6666 13.4163 10.9166 14.1663 9.99998 14.1663ZM12.5833 6.66634H7.41665V4.99967C7.41665 3.57467 8.57498 2.41634 9.99998 2.41634C11.425 2.41634 12.5833 3.57467 12.5833 4.99967V6.66634Z" fill="#A5B0C1"/>
</svg>
